<?xml version="1.0"?>
<svg xmlns="http://www.w3.org/2000/svg" xmlns:xlink="http://www.w3.org/1999/xlink" xmlns:svgjs="http://svgjs.com/svgjs" version="1.1" width="512" height="512" x="0" y="0" viewBox="0 0 368 368" style="enable-background:new 0 0 512 512" xml:space="preserve" class=""><g><path xmlns="http://www.w3.org/2000/svg" d="m184 0c-101.457031 0-184 82.535156-184 184s82.542969 184 184 184 184-82.535156 184-184-82.542969-184-184-184zm0 352c-92.640625 0-168-75.367188-168-168s75.359375-168 168-168 168 75.367188 168 168-75.359375 168-168 168zm0 0" fill="#ffffff" data-original="#000000" style="" class=""/><path xmlns="http://www.w3.org/2000/svg" d="m184 48c-74.992188 0-136 61.007812-136 136s61.007812 136 136 136 136-61.007812 136-136-61.007812-136-136-136zm0 256c-66.167969 0-120-53.832031-120-120s53.832031-120 120-120 120 53.832031 120 120-53.832031 120-120 120zm0 0" fill="#ffffff" data-original="#000000" style="" class=""/><path xmlns="http://www.w3.org/2000/svg" d="m225.34375 131.558594-58.582031 87.882812-25.105469-25.105468c-3.128906-3.128907-8.183594-3.128907-11.3125 0-3.128906 3.128906-3.128906 8.183593 0 11.3125l32 32c1.503906 1.519531 3.542969 2.351562 5.65625 2.351562.265625 0 .519531-.015625.792969-.039062 2.382812-.234376 4.535156-1.527344 5.863281-3.519532l64-96c2.449219-3.679687 1.457031-8.640625-2.214844-11.097656-3.679687-2.449219-8.648437-1.464844-11.097656 2.214844zm0 0" fill="#ffffff" data-original="#000000" style="" class=""/></g></svg>
