<?xml version="1.0"?>
<svg xmlns="http://www.w3.org/2000/svg" xmlns:xlink="http://www.w3.org/1999/xlink" xmlns:svgjs="http://svgjs.com/svgjs" version="1.1" width="512" height="512" x="0" y="0" viewBox="0 0 512.00001 512" style="enable-background:new 0 0 512 512" xml:space="preserve" class=""><g><path xmlns="http://www.w3.org/2000/svg" d="m256 238.867188c65.855469 0 119.433594-53.578126 119.433594-119.433594 0-65.855469-53.578125-119.433594-119.433594-119.433594s-119.433594 53.578125-119.433594 119.433594c0 65.855468 53.578125 119.433594 119.433594 119.433594zm-29.5625-130.039063 19.90625 19.902344 37.824219-50.429688c11.917969-15.886719 35.898437 2.132813 24 18l-48.199219 64.265625c-4.863281 6.480469-15.445312 8.769532-22.609375 1.605469l-32.132813-32.132813c-14.015624-14.011718 7.167969-35.261718 21.210938-21.210937zm0 0" fill="#1c9e00" data-original="#000000" style="" class=""/><path xmlns="http://www.w3.org/2000/svg" d="m320.269531 273.128906h-128.539062c-8.28125 0-15 6.722656-15 15v223.871094h158.539062v-223.871094c0-8.277344-6.71875-15-15-15zm0 0" fill="#1c9e00" data-original="#000000" style="" class=""/><path xmlns="http://www.w3.org/2000/svg" d="m110.335938 143.53125c0 30.46875-24.699219 55.167969-55.167969 55.167969s-55.167969-24.699219-55.167969-55.167969c0-30.464844 24.699219-55.164062 55.167969-55.164062s55.167969 24.699218 55.167969 55.164062zm0 0" fill="#1c9e00" data-original="#000000" style="" class=""/><path xmlns="http://www.w3.org/2000/svg" d="m512 143.53125c0 30.46875-24.699219 55.167969-55.167969 55.167969s-55.167969-24.699219-55.167969-55.167969c0-30.464844 24.699219-55.164062 55.167969-55.164062s55.167969 24.699218 55.167969 55.164062zm0 0" fill="#1c9e00" data-original="#000000" style="" class=""/><path xmlns="http://www.w3.org/2000/svg" d="m131.730469 336.328125h-21.402344v-72.296875c0-30.671875-24.96875-55.492188-55.769531-55.160156-30.359375.320312-54.558594 25.609375-54.558594 55.980468v79.519532c0 39.339844 31.890625 71.230468 71.230469 71.230468h39.097656v81.398438c0 8.28125 6.722656 15 15 15h21.402344v-160.671875c0-8.277344-6.710938-15-15-15zm0 0" fill="#1c9e00" data-original="#000000" style="" class=""/><path xmlns="http://www.w3.org/2000/svg" d="m380.269531 336.328125h21.402344v-72.296875c0-30.671875 24.96875-55.492188 55.769531-55.160156 30.359375.320312 54.558594 25.609375 54.558594 55.980468v79.519532c0 39.339844-31.890625 71.230468-71.230469 71.230468h-39.097656v81.398438c0 8.28125-6.722656 15-15 15h-21.402344v-160.671875c0-8.277344 6.710938-15 15-15zm0 0" fill="#1c9e00" data-original="#000000" style="" class=""/></g></svg>
