<?xml version="1.0"?>
<svg xmlns="http://www.w3.org/2000/svg" xmlns:xlink="http://www.w3.org/1999/xlink" xmlns:svgjs="http://svgjs.com/svgjs" version="1.1" width="512" height="512" x="0" y="0" viewBox="0 0 326.344 326.344" style="enable-background:new 0 0 512 512" xml:space="preserve" class=""><g>
<g xmlns="http://www.w3.org/2000/svg">
	<path style="" d="M0,326.344h326.344V0H0C0,0,0,326.344,0,326.344z M35.223,243.371l-5.439-9.42l29.605-17.106   l5.439,9.42L35.223,243.371z M234.266,296.043l-17.177-29.485l9.404-5.472l17.177,29.485L234.266,296.043z M150.825,171.456   l12.26-73.362l10.742,64.279l49.082,64.627l-72.084-54.75l0.794-0.794H150.825z M314.231,176.77h-45.182v-27.195h45.182V176.77z    M291.12,82.967l5.439,9.42l-29.605,17.106l-5.439-9.42L291.12,82.967z M266.949,216.845l29.61,17.1l-5.439,9.42l-29.605-17.106   L266.949,216.845z M234.266,30.296l9.404,5.472l-17.177,29.485l-9.404-5.472L234.266,30.296z M149.574,12.717h27.195v45.003   h-27.195C149.574,57.719,149.574,12.717,149.574,12.717z M149.574,268.619h27.195v44.997h-27.195   C149.574,313.616,149.574,268.619,149.574,268.619z M92.078,30.296l17.171,29.485l-9.404,5.472L82.674,35.767L92.078,30.296z    M99.85,261.086l9.404,5.472l-17.171,29.485l-9.404-5.472L99.85,261.086z M35.223,82.967l29.605,17.106l-5.439,9.42L29.784,92.388   L35.223,82.967z M12.113,149.574h45.182v27.195H12.113V149.574z" fill="#1c9e00" data-original="#010002" class=""/>
</g>
<g xmlns="http://www.w3.org/2000/svg">
</g>
<g xmlns="http://www.w3.org/2000/svg">
</g>
<g xmlns="http://www.w3.org/2000/svg">
</g>
<g xmlns="http://www.w3.org/2000/svg">
</g>
<g xmlns="http://www.w3.org/2000/svg">
</g>
<g xmlns="http://www.w3.org/2000/svg">
</g>
<g xmlns="http://www.w3.org/2000/svg">
</g>
<g xmlns="http://www.w3.org/2000/svg">
</g>
<g xmlns="http://www.w3.org/2000/svg">
</g>
<g xmlns="http://www.w3.org/2000/svg">
</g>
<g xmlns="http://www.w3.org/2000/svg">
</g>
<g xmlns="http://www.w3.org/2000/svg">
</g>
<g xmlns="http://www.w3.org/2000/svg">
</g>
<g xmlns="http://www.w3.org/2000/svg">
</g>
<g xmlns="http://www.w3.org/2000/svg">
</g>
</g></svg>
