<?xml version="1.0" encoding="iso-8859-1"?>
<!-- Generator: Adobe Illustrator 16.0.0, SVG Export Plug-In . SVG Version: 6.00 Build 0)  -->
<!DOCTYPE svg PUBLIC "-//W3C//DTD SVG 1.1//EN" "http://www.w3.org/Graphics/SVG/1.1/DTD/svg11.dtd">
<svg version="1.1" id="Capa_1" xmlns="http://www.w3.org/2000/svg" xmlns:xlink="http://www.w3.org/1999/xlink" x="0px" y="0px"
	 width="612px" height="612px" viewBox="0 0 612 612" style="enable-background:new 0 0 612 612;" xml:space="preserve">
<g>
	<g>
		<path d="M306,0C137.011,0,0,137.012,0,306s137.011,306,306,306c168.988,0,306-137.012,306-306S474.988,0,306,0z M562.031,275.232
			h-37.738c-13.655-97.528-91.246-174.496-189.061-187.248V49.802C453.664,63.232,547.912,157.012,562.031,275.232z
			 M306.545,492.469c-102.821,0-186.469-83.648-186.469-186.469c0-102.821,83.648-186.469,186.469-186.469
			c102.82,0,186.469,83.648,186.469,186.469C493.014,408.82,409.365,492.469,306.545,492.469z M274.668,50.045v38.346
			c-96.313,13.985-172.364,90.375-185.876,186.841H49.964C64.006,157.709,157.227,64.341,274.668,50.045z M49.854,335.797h38.814
			c13.134,96.926,89.362,173.779,186,187.812v38.346C156.901,547.62,63.495,453.774,49.854,335.797z M335.232,562.198v-38.183
			c98.14-12.795,175.907-90.232,189.185-188.219h37.729C548.424,454.477,453.989,548.729,335.232,562.198z"/>
		<path d="M439.34,272.163c-1.521-4.231-6.115-6.459-10.242-4.982l-86.158,29.873c-6.148-12.914-19.282-21.865-34.534-21.865
			c-6.178,0-11.992,1.497-17.156,4.098l-67.903-58.819c-6.717-5.838-16.892-5.106-22.701,1.645
			c-5.824,6.718-5.092,16.878,1.625,22.716l68.951,59.704c-0.688,2.869-1.09,5.853-1.09,8.932c0,21.138,17.136,38.273,38.274,38.273
			c21.138,0,38.273-17.136,38.273-38.273c0-0.234-0.028-0.459-0.033-0.693l87.717-30.371
			C438.546,280.941,440.773,276.347,439.34,272.163z"/>
	</g>
</g>
<g>
</g>
<g>
</g>
<g>
</g>
<g>
</g>
<g>
</g>
<g>
</g>
<g>
</g>
<g>
</g>
<g>
</g>
<g>
</g>
<g>
</g>
<g>
</g>
<g>
</g>
<g>
</g>
<g>
</g>
</svg>
