<svg height="512pt" viewBox="0 0 512 512" width="512pt" xmlns="http://www.w3.org/2000/svg"><path d="m430.320312 371.554688c-27.71875-7.472657-60.761718-12.957032-96.75-16.1875l-51.113281 95.589843-26.457031 49.476563-26.453125-49.476563-51.113281-95.589843c-35.992188 3.230468-69.035156 8.710937-96.75 16.1875-54.203125 14.621093-81.683594 34.957031-81.683594 60.445312s27.480469 45.824219 81.679688 60.445312c46.757812 12.609376 108.664062 19.554688 174.320312 19.554688s127.5625-6.945312 174.320312-19.554688c54.199219-14.621093 81.679688-34.957031 81.679688-60.445312s-27.480469-45.824219-81.679688-60.445312zm0 0"/><path d="m256 180c16.542969 0 30-13.457031 30-30s-13.457031-30-30-30-30 13.457031-30 30 13.457031 30 30 30zm0 0"/><path d="m167.261719 270.855469 88.738281 165.957031 88.738281-165.957031c37.125-27.332031 61.261719-71.324219 61.261719-120.855469 0-82.710938-67.289062-150-150-150s-150 67.289062-150 150c0 49.53125 24.136719 93.523438 61.261719 120.855469zm88.738281-180.855469c33.085938 0 60 26.914062 60 60s-26.914062 60-60 60-60-26.914062-60-60 26.914062-60 60-60zm0 0"/></svg>